<svg xmlns="http://www.w3.org/2000/svg" width="24" height="24" viewBox="0 0 24 24">
  <path fill="#666" d="M15.0740378,4.99654471 C16.624807,4.99654471 17.6771147,5.66116009 17.6771147,7.19808317 C17.6771147,7.62731394 17.6217301,8.07039086 17.5524993,8.52731394 C17.4971147,8.97039086 17.3724993,9.27500625 17.3724993,9.70423702 C17.3724993,10.2303909 19.0340378,10.7980832 20.2524993,10.8257755 L20.2524993,10.8257755 L20.2524993,12.2657755 C19.0340378,12.2934678 17.4278839,12.944237 17.4278839,13.4150062 C17.4278839,13.844237 17.4971147,14.0934678 17.5524993,14.5365447 C17.6217301,14.9796216 17.6771147,15.4365447 17.6771147,15.8380832 C17.6771147,17.4996216 16.5832685,18.0950062 15.0740378,18.0950062 L15.0740378,18.0950062 L12.9971147,18.0950062 L12.9971147,16.6273139 L14.4509609,16.6273139 C15.3924993,16.6273139 16.0986532,16.2673139 16.0986532,15.6303909 C16.0986532,15.2980832 16.0432685,14.9519293 15.9740378,14.5919293 C15.9463455,14.2319293 15.8771147,13.844237 15.8771147,13.4011601 C15.8632685,12.2519293 16.8740378,11.7257755 17.7740378,11.5319293 C16.8740378,11.3380832 15.8632685,10.8257755 15.8771147,9.67654471 C15.8771147,9.24731394 15.9463455,8.85962163 15.9740378,8.49962163 C16.0432685,8.13962163 16.0986532,7.79346779 16.0986532,7.46116009 C16.0986532,6.65808317 15.544807,6.46423702 14.4509609,6.46423702 L14.4509609,6.46423702 L12.9971147,6.46423702 L12.9971147,4.99654471 Z M10.9878009,4.99654471 L10.9878009,6.46423702 L9.53395472,6.46423702 C8.44010857,6.46423702 7.88626241,6.65808317 7.88626241,7.46116009 C7.88626241,7.79346779 7.94164703,8.13962163 8.0108778,8.49962163 C8.03857011,8.85962163 8.10780087,9.24731394 8.10780087,9.67654471 C8.12164703,10.8257755 7.1108778,11.3380832 6.2108778,11.5319293 C7.1108778,11.7257755 8.12164703,12.2519293 8.10780087,13.4011601 C8.10780087,13.844237 8.03857011,14.2319293 8.0108778,14.5919293 C7.94164703,14.9519293 7.88626241,15.2980832 7.88626241,15.6303909 C7.88626241,16.2673139 8.59241626,16.6273139 9.53395472,16.6273139 L10.9878009,16.6273139 L10.9878009,18.0950062 L8.9108778,18.0950062 C7.40164703,18.0950062 6.30780087,17.4996216 6.30780087,15.8380832 C6.30780087,15.4365447 6.36318549,14.9796216 6.43241626,14.5365447 C6.48780087,14.0934678 6.55703164,13.844237 6.55703164,13.4150062 C6.55703164,12.944237 4.9508778,12.2934678 3.73241626,12.2657755 L3.73241626,10.8257755 C4.9508778,10.7980832 6.61241626,10.2303909 6.61241626,9.70423702 C6.61241626,9.27500625 6.48780087,8.97039086 6.43241626,8.52731394 C6.36318549,8.07039086 6.30780087,7.62731394 6.30780087,7.19808317 C6.30780087,5.66116009 7.36010857,4.99654471 8.9108778,4.99654471 L10.9878009,4.99654471 Z"/>
</svg>
